<svg version="1.1" id="Layer_1" xmlns="http://www.w3.org/2000/svg" xmlns:xlink="http://www.w3.org/1999/xlink" x="0px" y="0px"
	 width="100%" viewBox="0 0 374 374" enable-background="new 0 0 374 374" xml:space="preserve">
<path fill="#FEFFFF" opacity="1.000000" stroke="none" 
	d="
M375.000000,161.000000 
	C375.000000,178.687561 375.000000,196.375122 374.640381,214.230652 
	C373.187836,219.218658 372.087830,224.037094 371.003174,228.858978 
	C363.232513,263.403107 346.729126,293.311859 322.442230,318.869263 
	C316.163727,325.476196 308.829742,331.147217 301.625244,336.794861 
	C276.648438,356.374298 248.343033,368.316437 216.971603,373.073029 
	C216.233978,373.184875 215.653671,374.334442 215.000000,375.000000 
	C197.312439,375.000000 179.624878,375.000000 161.769348,374.640350 
	C156.781342,373.187805 151.962906,372.087860 147.141022,371.003204 
	C112.596931,363.232483 82.688126,346.729187 57.130756,322.442261 
	C50.523830,316.163757 44.852776,308.829773 39.205120,301.625275 
	C19.625643,276.648499 7.683598,248.343002 2.926961,216.971603 
	C2.815115,216.233963 1.665546,215.653671 1.000003,215.000000 
	C1.000000,197.312439 1.000000,179.624878 1.359663,161.769348 
	C2.812199,156.781357 3.912136,151.962921 4.996815,147.141037 
	C12.767479,112.596924 29.270821,82.688126 53.557777,57.130745 
	C59.836277,50.523819 67.170242,44.852741 74.374748,39.205109 
	C99.351555,19.625702 127.656982,7.683559 159.028397,2.926955 
	C159.766037,2.815112 160.346313,1.665541 161.000000,1.000000 
	C178.687561,1.000000 196.375122,1.000000 214.230652,1.359664 
	C219.218658,2.812202 224.037140,3.912127 228.859039,4.996818 
	C263.403107,12.767575 293.311951,29.270832 318.869293,53.557819 
	C325.476196,59.836342 331.147369,67.170250 336.794983,74.374771 
	C356.374298,99.351593 368.316437,127.656982 373.072968,159.028397 
	C373.184814,159.766037 374.334442,160.346329 375.000000,161.000000 
M306.376129,188.813705 
	C303.961060,183.957153 299.900513,181.910767 294.626862,181.912964 
	C290.135223,181.914825 285.643555,181.908386 281.152008,181.883301 
	C277.668030,181.863861 275.924103,183.541870 275.928680,187.055389 
	C275.940430,196.038971 275.954559,205.022720 275.911102,214.006119 
	C275.895935,217.138870 277.138306,219.218552 280.408356,219.436035 
	C283.984802,219.673889 285.533142,217.466385 285.706543,214.226822 
	C285.863617,211.292709 285.739716,208.343536 285.739716,205.401016 
	C286.258820,205.029556 286.777924,204.658096 287.297028,204.286636 
	C289.273895,205.812286 291.626770,207.039536 293.133575,208.938248 
	C295.071075,211.379608 295.808746,214.956116 298.050079,216.913879 
	C299.757599,218.405334 303.002014,218.137299 305.562683,218.652054 
	C305.649536,216.569412 306.391693,214.219772 305.676361,212.463928 
	C304.470032,209.502686 302.339661,206.917892 300.455719,203.950928 
	C307.088654,201.138245 307.294037,195.164902 307.803192,188.981277 
	C311.356720,189.448441 314.910278,189.915619 318.926971,190.443665 
	C318.926971,192.109100 318.924469,193.739914 318.927368,195.370712 
	C318.938965,201.855911 318.631836,208.368484 319.182404,214.807693 
	C319.326233,216.490143 321.995148,218.924850 323.774902,219.188629 
	C325.163513,219.394440 327.448700,217.046906 328.442841,215.320129 
	C329.248077,213.921478 328.775085,211.758072 328.781464,209.933548 
	C328.804535,203.354614 328.790527,196.775558 328.790527,189.869965 
	C331.726837,189.869965 333.868866,189.881165 336.010742,189.867233 
	C338.891479,189.848495 341.376434,188.641281 340.684082,185.593842 
	C340.339722,184.078156 337.686798,182.131271 335.991669,182.043091 
	C328.528625,181.654922 321.034027,181.860184 313.550934,181.875198 
	C306.845673,181.888657 306.526917,182.253128 306.376129,188.813705 
M97.895844,130.489288 
	C95.046074,146.254181 98.850807,160.869232 105.837593,174.834991 
	C108.486092,180.129028 114.819427,182.100876 119.539124,179.570206 
	C119.156929,178.665298 118.798599,177.738495 118.380760,176.839325 
	C111.987328,163.081131 108.821251,148.750870 112.070938,133.691452 
	C115.068039,119.802620 121.047340,107.416733 134.093201,100.184235 
	C152.565063,89.943642 182.807541,98.077736 195.794891,110.095718 
	C198.533920,112.630325 199.902191,115.718796 199.029785,119.914795 
	C195.470398,137.034515 209.412964,150.632233 226.531754,146.995865 
	C237.654724,144.633133 245.000259,133.104568 243.074005,121.033447 
	C241.299561,109.913643 230.360748,100.951637 219.629288,102.401649 
	C215.828308,102.915222 212.927124,102.026054 209.845947,100.179672 
	C196.529266,92.199684 182.725708,85.822014 167.070724,83.293404 
	C135.432739,78.183189 102.319603,102.335594 97.895844,130.489288 
M168.029984,256.050751 
	C165.812653,272.308075 176.630310,281.380554 186.634323,282.858582 
	C198.542038,284.617859 209.843399,276.765594 212.379623,264.521851 
	C213.081436,261.133820 214.627518,259.414764 217.410278,257.927216 
	C232.973923,249.607498 246.182526,238.255325 258.487518,225.755081 
	C260.509155,223.701355 262.329102,220.952438 259.287903,219.282516 
	C257.101105,218.081741 252.137039,217.967224 251.080383,219.373413 
	C246.715225,225.182388 241.497452,227.037796 234.965363,225.198227 
	C234.965363,229.146652 234.622452,232.776749 235.057236,236.311142 
	C235.537430,240.214767 234.100296,241.222397 230.432526,241.245682 
	C223.066681,241.292435 215.383286,238.730484 208.470108,243.817230 
	C207.684601,244.395218 205.314911,242.847672 203.691833,242.252853 
	C201.766312,241.547226 199.857437,240.211548 197.934982,240.199890 
	C193.486145,240.172897 188.804703,241.791245 184.645248,240.850800 
	C180.290894,239.866302 177.315750,241.069473 175.067032,243.885315 
	C172.330978,247.311417 170.423218,251.399002 168.029984,256.050751 
M163.522781,179.170456 
	C167.761353,177.406601 171.999924,175.642746 176.764343,173.660065 
	C176.896255,171.013428 177.065384,167.619766 177.258865,163.738068 
	C183.999893,163.738068 190.257675,163.738068 196.686920,163.738068 
	C196.686920,156.627823 196.686920,150.052368 196.686920,142.757385 
	C190.039078,142.757385 183.648315,142.757385 176.787949,142.757385 
	C176.787949,135.776642 176.787949,129.509277 176.787949,123.176636 
	C169.694397,123.176636 163.119431,123.176636 155.873444,123.176636 
	C155.873444,129.853241 155.873444,136.233841 155.873444,143.044418 
	C151.045135,142.799591 146.908890,142.413559 142.775162,142.438797 
	C139.741409,142.457291 135.950607,141.947571 135.854691,146.751312 
	C135.749146,152.037231 135.830627,157.326904 135.830627,162.890076 
	C142.907272,163.318008 149.293610,163.704208 156.221771,164.123154 
	C156.221771,169.926346 156.221771,175.326889 156.221771,181.552704 
	C158.953201,180.777664 160.924698,180.218262 163.522781,179.170456 
M290.607330,118.001045 
	C276.272369,81.373489 240.938538,73.119438 210.097031,80.501587 
	C218.346909,80.958168 227.847916,81.066292 237.250290,82.084763 
	C262.733398,84.845123 280.256348,104.184448 281.022827,129.682648 
	C281.561920,147.615463 276.695251,164.192810 268.974030,180.138718 
	C268.175140,181.788620 268.075623,183.777206 267.651611,185.608627 
	C268.167358,185.798141 268.683136,185.987640 269.198883,186.177139 
	C270.410645,179.516632 274.034454,175.539337 280.837280,175.163055 
	C282.499023,175.071152 284.296326,175.515366 285.800598,175.016907 
	C287.379120,174.493851 289.538849,173.417038 289.973297,172.097748 
	C295.788727,154.438232 297.130371,136.631546 290.607330,118.001045 
M224.050690,201.729614 
	C224.623901,201.983337 225.689316,202.223709 225.696609,202.492783 
	C225.809479,206.654602 225.388245,210.878159 225.984299,214.956818 
	C226.228577,216.628464 228.397781,218.754135 230.082199,219.201492 
	C231.076889,219.465683 234.018600,216.888245 234.063766,215.521881 
	C234.399017,205.384949 234.451935,195.223404 234.099167,185.086807 
	C233.965607,181.248886 229.589569,179.894623 226.674667,182.544128 
	C225.364548,183.734985 224.493942,185.459335 223.588348,187.036072 
	C220.710205,192.047150 217.909424,197.102676 214.697433,202.819717 
	C210.933685,196.177704 207.839890,190.123215 204.102936,184.495834 
	C203.021088,182.866699 199.991638,181.585052 198.049759,181.811783 
	C196.795105,181.958298 195.049561,185.104584 194.979431,186.961533 
	C194.652725,195.611908 194.858902,204.281540 194.818390,212.944031 
	C194.803696,216.083176 194.747803,219.423141 199.016785,219.420715 
	C203.420975,219.418213 203.677979,215.972168 203.688889,212.640518 
	C203.700928,208.965439 203.691650,205.290283 203.691650,201.615143 
	C206.721710,204.748398 208.536667,208.078247 210.607361,211.240646 
	C213.085327,215.025009 215.906296,215.075287 218.377960,211.366928 
	C220.313232,208.463364 221.950943,205.361465 224.050690,201.729614 
M74.935532,197.002991 
	C72.440269,186.631989 66.974915,182.185440 56.285629,181.916824 
	C52.790905,181.828995 49.283546,182.039810 45.798100,181.836884 
	C41.042671,181.560028 39.131592,183.803574 39.172615,188.362457 
	C39.244526,196.354370 39.132729,204.348022 39.212894,212.339783 
	C39.266171,217.650681 40.694977,218.940674 46.180824,219.004684 
	C48.844654,219.035767 51.509186,219.019455 54.173328,219.008118 
	C68.679199,218.946335 75.190094,212.332291 74.935532,197.002991 
M77.073112,197.010330 
	C77.037567,198.007202 76.971840,199.004059 76.971169,200.000946 
	C76.964905,209.302063 81.013618,215.674088 88.637833,218.384415 
	C96.819473,221.292892 105.405357,219.247986 110.481865,213.181854 
	C115.458710,207.234802 116.247643,197.128723 112.278969,190.161514 
	C108.674980,183.834549 101.255852,180.226135 93.605522,181.208130 
	C84.672104,182.354828 79.120911,187.296509 77.073112,197.010330 
M192.491837,205.252594 
	C189.968918,202.843460 187.750259,199.923981 184.829269,198.182541 
	C182.379883,196.722305 179.028107,196.864792 176.238220,195.850922 
	C174.731384,195.303299 173.564789,193.819427 172.244690,192.757950 
	C173.692657,191.610336 175.057922,189.652328 176.606888,189.494247 
	C179.316574,189.217697 182.149292,190.382584 184.910889,190.298691 
	C186.865067,190.239349 188.786957,189.117020 190.723251,188.469208 
	C189.678635,186.653748 189.072189,183.946945 187.512131,183.180038 
	C181.372650,180.162003 174.910080,180.287857 168.783768,183.422333 
	C164.388412,185.671188 162.380508,189.457062 162.773026,194.524719 
	C163.152786,199.427719 166.120316,201.919815 170.430817,203.216965 
	C172.809448,203.932770 175.370514,204.139954 177.645157,205.073792 
	C179.570740,205.864273 181.202667,207.370071 182.964554,208.559311 
	C181.082672,209.491760 179.230911,211.112000 177.311874,211.196030 
	C174.408066,211.323212 171.345947,210.718475 168.557785,209.798355 
	C165.731567,208.865662 163.055801,208.886292 162.564606,211.843643 
	C162.281540,213.547897 164.092041,216.691727 165.744720,217.428970 
	C171.632019,220.055206 177.923431,220.581970 184.208710,218.460007 
	C190.182800,216.443085 192.708328,212.714005 192.491837,205.252594 
M265.592072,195.886993 
	C264.193604,192.877594 263.152344,189.619827 261.286102,186.935669 
	C259.733032,184.702011 257.182861,181.654968 255.125778,181.693787 
	C252.983398,181.734222 250.149506,184.648727 248.931580,186.989914 
	C244.723434,195.079285 241.062408,203.454803 237.250168,211.747604 
	C236.147598,214.146057 234.520309,217.034088 237.833603,218.703934 
	C241.299545,220.450714 244.044647,218.808029 245.205597,215.202454 
	C246.140396,212.299225 247.898010,211.326736 250.796066,211.629242 
	C252.604233,211.817993 254.456635,211.777405 256.274384,211.641571 
	C260.612732,211.317398 264.297333,211.528870 266.115112,216.735672 
	C266.566315,218.028030 270.183594,218.215027 272.345581,218.910110 
	C272.712616,216.884995 273.918579,214.542130 273.293823,212.892685 
	C271.183044,207.320114 268.422791,201.993561 265.592072,195.886993 
M137.377167,211.023239 
	C129.468948,210.621994 125.952553,206.189865 127.063362,198.023544 
	C127.932968,191.630463 133.001541,188.553467 140.097046,190.160385 
	C141.227341,190.416367 142.374741,191.316971 143.397629,191.159943 
	C144.969772,190.918625 147.188705,190.402512 147.755508,189.296783 
	C148.388107,188.062653 147.845627,185.854340 147.118668,184.423615 
	C146.619751,183.441681 145.003510,182.839157 143.766251,182.451447 
	C136.155807,180.066681 128.861450,180.561722 122.603065,185.907471 
	C116.245956,191.337524 115.703033,198.779068 117.402008,206.145081 
	C120.711899,220.495224 137.729462,222.107834 146.050949,217.157227 
	C147.381454,216.365692 147.586349,213.682098 148.311615,211.873199 
	C146.385483,211.189896 144.500565,210.190582 142.519012,209.932022 
	C141.149567,209.753326 139.646591,210.597870 137.377167,211.023239 
M212.481125,235.379196 
	C214.593002,236.455399 216.704880,237.531601 218.244476,238.316177 
	C218.540176,236.554626 218.609680,234.851151 219.132126,233.300247 
	C220.177597,230.196701 219.060791,228.381546 216.026840,227.886566 
	C214.127197,227.576645 212.135818,227.828873 210.212921,227.828873 
	C210.212921,231.699066 210.212921,235.194290 210.212921,238.689529 
	C210.516586,238.742355 210.820236,238.795197 211.123901,238.848022 
	C211.449631,237.912567 211.775375,236.977112 212.481125,235.379196 
M108.980011,231.456131 
	C111.152840,230.439102 113.325676,229.422073 115.498505,228.405060 
	C112.633545,227.727127 107.967918,227.062744 107.354378,228.341919 
	C105.941559,231.287445 106.498459,235.177734 106.264061,238.569519 
	C109.930801,238.569519 112.673798,238.569519 115.416801,238.569519 
	C115.426384,238.239807 115.435966,237.910110 115.445549,237.580399 
	C113.257462,237.198273 111.069366,236.816132 108.881271,236.434006 
	C109.676384,234.975113 110.556587,234.552155 111.484718,234.355972 
	C112.688362,234.101562 113.930183,234.027740 115.155579,233.876190 
	C115.163231,233.517654 115.170883,233.159134 115.178535,232.800598 
	C113.310303,232.568985 111.442070,232.337372 108.980011,231.456131 
M227.635712,227.598785 
	C223.258362,228.149460 222.557343,230.613144 224.564026,239.117462 
	C227.226624,238.997314 229.947723,238.874527 232.668823,238.751740 
	C232.662872,238.431458 232.656921,238.111176 232.650986,237.790894 
	C230.383286,237.179688 228.115601,236.568497 225.847916,235.957306 
	C226.031342,235.498260 226.214767,235.039230 226.398193,234.580185 
	C228.350433,234.327316 230.302689,234.074448 232.254929,233.821579 
	C230.966415,232.694305 229.665314,232.698746 228.482971,232.326218 
	C227.596481,232.046906 226.862808,231.282593 226.061111,230.734192 
	C226.821487,230.309662 227.538513,229.674179 228.351791,229.507065 
	C229.790390,229.211472 231.287537,229.200806 232.760193,229.070908 
	C232.744202,228.697113 232.728226,228.323318 232.712250,227.949509 
	C231.286896,227.832535 229.861557,227.715546 227.635712,227.598785 
M93.322456,238.827271 
	C94.494576,237.371277 95.666687,235.915283 96.838814,234.459290 
	C98.243240,235.806778 99.647667,237.154251 101.230202,238.672623 
	C101.230202,235.125381 101.230202,231.538452 101.230202,227.516830 
	C99.575638,229.593658 98.405899,231.061905 97.236160,232.530167 
	C95.785713,231.078674 94.335274,229.627182 92.027512,227.317734 
	C92.228111,231.533173 92.393402,235.006393 93.322456,238.827271 
M130.220078,238.903137 
	C128.749023,235.014297 127.277977,231.125458 125.806931,227.236618 
	C125.268036,227.287201 124.729141,227.337799 124.190254,227.388397 
	C122.287842,231.059464 120.385437,234.730530 118.483032,238.401596 
	C124.246826,235.009171 126.087402,235.017914 130.220078,238.903137 
M202.253967,230.366455 
	C201.565628,229.383347 200.877304,228.400238 199.730469,226.762299 
	C197.477997,231.157669 195.622528,234.778336 193.767059,238.398987 
	C194.048798,238.925232 194.330551,239.451477 194.612305,239.977707 
	C198.283981,234.189987 201.889145,235.286850 206.186737,238.624313 
	C204.998367,236.074463 203.810013,233.524628 202.253967,230.366455 
M159.779968,232.537888 
	C159.924423,234.603943 160.068893,236.669998 160.213364,238.736053 
	C160.580902,238.719711 160.948456,238.703354 161.316010,238.686996 
	C161.686096,237.341965 162.056183,235.996933 162.460434,234.527710 
	C163.817963,234.527710 165.100021,234.527710 166.390762,234.527710 
	C166.890900,236.005630 167.368561,237.417145 167.846222,238.828674 
	C168.077469,238.769958 168.308701,238.711227 168.539948,238.652512 
	C168.539948,235.133102 168.539948,231.613678 168.539948,228.094254 
	C167.106567,230.859070 166.789551,234.220428 162.448181,232.223969 
	C162.015686,230.805801 161.583176,229.387619 161.150665,227.969452 
	C160.839783,228.001999 160.528915,228.034546 160.218033,228.067093 
	C160.072067,229.252777 159.926086,230.438446 159.779968,232.537888 
M187.957001,227.699509 
	C184.407959,227.213699 181.642990,228.173752 180.901566,232.051651 
	C180.312653,235.131821 181.282867,237.781128 184.476456,238.787460 
	C187.190552,239.642715 189.715134,239.231873 191.103775,236.718094 
	C188.313309,236.362823 185.900803,236.347122 183.749847,235.589157 
	C183.168488,235.384323 182.904678,231.863724 183.305115,231.685547 
	C185.621353,230.654984 188.180099,230.169418 190.824783,229.453888 
	C190.342056,229.091187 189.513489,228.468613 187.957001,227.699509 
M153.256195,229.737015 
	C154.254303,229.426270 155.252396,229.115524 156.250504,228.804794 
	C156.202332,228.594391 156.154160,228.383987 156.105988,228.173584 
	C152.787018,228.173584 149.468048,228.173584 146.149078,228.173584 
	C146.122498,228.468903 146.095917,228.764236 146.069336,229.059555 
	C147.374557,229.441742 148.679764,229.823929 149.715576,230.127243 
	C150.005112,233.360352 150.251312,236.109467 150.497513,238.858597 
	C150.943115,238.834549 151.388733,238.810486 151.834351,238.786438 
	C152.050552,235.898270 152.266769,233.010101 153.256195,229.737015 
M136.963013,231.628601 
	C136.760696,230.390488 136.558395,229.152359 136.356094,227.914246 
	C135.950745,227.967300 135.545410,228.020355 135.140060,228.073425 
	C135.140060,231.580658 135.140060,235.087891 135.140060,238.667572 
	C138.017761,238.667572 140.652359,238.667572 143.286957,238.667572 
	C143.326126,238.276047 143.365280,237.884521 143.404449,237.493011 
	C141.439987,237.291473 139.475525,237.089935 137.168503,236.853241 
	C137.101624,235.448425 137.032425,233.994797 136.963013,231.628601 
z"/>
<path fill="#000000" opacity="1.000000" stroke="none" 
	d="
M160.531342,1.000000 
	C160.346313,1.665541 159.766037,2.815112 159.028397,2.926955 
	C127.656982,7.683559 99.351555,19.625702 74.374748,39.205109 
	C67.170242,44.852741 59.836277,50.523819 53.557777,57.130745 
	C29.270821,82.688126 12.767479,112.596924 4.996815,147.141037 
	C3.912136,151.962921 2.812199,156.781357 1.359663,161.300690 
	C1.000000,107.739655 1.000000,54.479317 1.000000,1.000000 
	C54.020695,1.000000 107.041687,1.000000 160.531342,1.000000 
z"/>
<path fill="#000000" opacity="1.000000" stroke="none" 
	d="
M375.000000,160.531342 
	C374.334442,160.346329 373.184814,159.766037 373.072968,159.028397 
	C368.316437,127.656982 356.374298,99.351593 336.794983,74.374771 
	C331.147369,67.170250 325.476196,59.836342 318.869293,53.557819 
	C293.311951,29.270832 263.403107,12.767575 228.859039,4.996818 
	C224.037140,3.912127 219.218658,2.812202 214.699310,1.359664 
	C268.260345,1.000000 321.520660,1.000000 375.000000,1.000000 
	C375.000000,54.020695 375.000000,107.041687 375.000000,160.531342 
z"/>
<path fill="#000000" opacity="1.000000" stroke="none" 
	d="
M215.468658,375.000000 
	C215.653671,374.334442 216.233978,373.184875 216.971603,373.073029 
	C248.343033,368.316437 276.648438,356.374298 301.625244,336.794861 
	C308.829742,331.147217 316.163727,325.476196 322.442230,318.869263 
	C346.729126,293.311859 363.232513,263.403107 371.003174,228.858978 
	C372.087830,224.037094 373.187836,219.218658 374.640381,214.699310 
	C375.000000,268.260345 375.000000,321.520691 375.000000,375.000000 
	C321.979309,375.000000 268.958313,375.000000 215.468658,375.000000 
z"/>
<path fill="#000000" opacity="1.000000" stroke="none" 
	d="
M1.000003,215.468658 
	C1.665546,215.653671 2.815115,216.233963 2.926961,216.971603 
	C7.683598,248.343002 19.625643,276.648499 39.205120,301.625275 
	C44.852776,308.829773 50.523830,316.163757 57.130756,322.442261 
	C82.688126,346.729187 112.596931,363.232483 147.141022,371.003204 
	C151.962906,372.087860 156.781342,373.187805 161.300690,374.640350 
	C107.739655,375.000000 54.479317,375.000000 1.000000,375.000000 
	C1.000000,321.979309 1.000000,268.958313 1.000003,215.468658 
z"/>
<path fill="#222E5D" opacity="1.000000" stroke="none" 
	d="
M97.949066,130.061996 
	C102.319603,102.335594 135.432739,78.183189 167.070724,83.293404 
	C182.725708,85.822014 196.529266,92.199684 209.845947,100.179672 
	C212.927124,102.026054 215.828308,102.915222 219.629288,102.401649 
	C230.360748,100.951637 241.299561,109.913643 243.074005,121.033447 
	C245.000259,133.104568 237.654724,144.633133 226.531754,146.995865 
	C209.412964,150.632233 195.470398,137.034515 199.029785,119.914795 
	C199.902191,115.718796 198.533920,112.630325 195.794891,110.095718 
	C182.807541,98.077736 152.565063,89.943642 134.093201,100.184235 
	C121.047340,107.416733 115.068039,119.802620 112.070938,133.691452 
	C108.821251,148.750870 111.987328,163.081131 118.380760,176.839325 
	C118.798599,177.738495 119.156929,178.665298 119.539124,179.570206 
	C114.819427,182.100876 108.486092,180.129028 105.837593,174.834991 
	C98.850807,160.869232 95.046074,146.254181 97.949066,130.061996 
z"/>
<path fill="#40BEEC" opacity="1.000000" stroke="none" 
	d="
M168.093567,255.625595 
	C170.423218,251.399002 172.330978,247.311417 175.067032,243.885315 
	C177.315750,241.069473 180.290894,239.866302 184.645248,240.850800 
	C188.804703,241.791245 193.486145,240.172897 197.934982,240.199890 
	C199.857437,240.211548 201.766312,241.547226 203.691833,242.252853 
	C205.314911,242.847672 207.684601,244.395218 208.470108,243.817230 
	C215.383286,238.730484 223.066681,241.292435 230.432526,241.245682 
	C234.100296,241.222397 235.537430,240.214767 235.057236,236.311142 
	C234.622452,232.776749 234.965363,229.146652 234.965363,225.198227 
	C241.497452,227.037796 246.715225,225.182388 251.080383,219.373413 
	C252.137039,217.967224 257.101105,218.081741 259.287903,219.282516 
	C262.329102,220.952438 260.509155,223.701355 258.487518,225.755081 
	C246.182526,238.255325 232.973923,249.607498 217.410278,257.927216 
	C214.627518,259.414764 213.081436,261.133820 212.379623,264.521851 
	C209.843399,276.765594 198.542038,284.617859 186.634323,282.858582 
	C176.630310,281.380554 165.812653,272.308075 168.093567,255.625595 
z"/>
<path fill="#3FBEEC" opacity="1.000000" stroke="none" 
	d="
M163.209503,179.414642 
	C160.924698,180.218262 158.953201,180.777664 156.221771,181.552704 
	C156.221771,175.326889 156.221771,169.926346 156.221771,164.123154 
	C149.293610,163.704208 142.907272,163.318008 135.830627,162.890076 
	C135.830627,157.326904 135.749146,152.037231 135.854691,146.751312 
	C135.950607,141.947571 139.741409,142.457291 142.775162,142.438797 
	C146.908890,142.413559 151.045135,142.799591 155.873444,143.044418 
	C155.873444,136.233841 155.873444,129.853241 155.873444,123.176636 
	C163.119431,123.176636 169.694397,123.176636 176.787949,123.176636 
	C176.787949,129.509277 176.787949,135.776642 176.787949,142.757385 
	C183.648315,142.757385 190.039078,142.757385 196.686920,142.757385 
	C196.686920,150.052368 196.686920,156.627823 196.686920,163.738068 
	C190.257675,163.738068 183.999893,163.738068 177.258865,163.738068 
	C177.065384,167.619766 176.896255,171.013428 176.764343,173.660065 
	C171.999924,175.642746 167.761353,177.406601 163.209503,179.414642 
z"/>
<path fill="#43BFED" opacity="1.000000" stroke="none" 
	d="
M290.749146,118.367119 
	C297.130371,136.631546 295.788727,154.438232 289.973297,172.097748 
	C289.538849,173.417038 287.379120,174.493851 285.800598,175.016907 
	C284.296326,175.515366 282.499023,175.071152 280.837280,175.163055 
	C274.034454,175.539337 270.410645,179.516632 269.198883,186.177139 
	C268.683136,185.987640 268.167358,185.798141 267.651611,185.608627 
	C268.075623,183.777206 268.175140,181.788620 268.974030,180.138718 
	C276.695251,164.192810 281.561920,147.615463 281.022827,129.682648 
	C280.256348,104.184448 262.733398,84.845123 237.250290,82.084763 
	C227.847916,81.066292 218.346909,80.958168 210.097031,80.501587 
	C240.938538,73.119438 276.272369,81.373489 290.749146,118.367119 
z"/>
<path fill="#42BFEC" opacity="1.000000" stroke="none" 
	d="
M223.885773,202.038651 
	C221.950943,205.361465 220.313232,208.463364 218.377960,211.366928 
	C215.906296,215.075287 213.085327,215.025009 210.607361,211.240646 
	C208.536667,208.078247 206.721710,204.748398 203.691650,201.615143 
	C203.691650,205.290283 203.700928,208.965439 203.688889,212.640518 
	C203.677979,215.972168 203.420975,219.418213 199.016785,219.420715 
	C194.747803,219.423141 194.803696,216.083176 194.818390,212.944031 
	C194.858902,204.281540 194.652725,195.611908 194.979431,186.961533 
	C195.049561,185.104584 196.795105,181.958298 198.049759,181.811783 
	C199.991638,181.585052 203.021088,182.866699 204.102936,184.495834 
	C207.839890,190.123215 210.933685,196.177704 214.697433,202.819717 
	C217.909424,197.102676 220.710205,192.047150 223.588348,187.036072 
	C224.493942,185.459335 225.364548,183.734985 226.674667,182.544128 
	C229.589569,179.894623 233.965607,181.248886 234.099167,185.086807 
	C234.451935,195.223404 234.399017,205.384949 234.063766,215.521881 
	C234.018600,216.888245 231.076889,219.465683 230.082199,219.201492 
	C228.397781,218.754135 226.228577,216.628464 225.984299,214.956818 
	C225.388245,210.878159 225.809479,206.654602 225.696609,202.492783 
	C225.689316,202.223709 224.623901,201.983337 223.885773,202.038651 
z"/>
<path fill="#43BFED" opacity="1.000000" stroke="none" 
	d="
M74.961517,197.437225 
	C75.190094,212.332291 68.679199,218.946335 54.173328,219.008118 
	C51.509186,219.019455 48.844654,219.035767 46.180824,219.004684 
	C40.694977,218.940674 39.266171,217.650681 39.212894,212.339783 
	C39.132729,204.348022 39.244526,196.354370 39.172615,188.362457 
	C39.131592,183.803574 41.042671,181.560028 45.798100,181.836884 
	C49.283546,182.039810 52.790905,181.828995 56.285629,181.916824 
	C66.974915,182.185440 72.440269,186.631989 74.961517,197.437225 
M63.627644,194.198349 
	C59.958244,188.812683 54.714176,189.618607 49.407284,190.220184 
	C49.407284,197.319061 49.407284,204.045914 49.407284,210.729355 
	C62.563301,211.935867 67.318710,206.627090 63.627644,194.198349 
z"/>
<path fill="#43BFED" opacity="1.000000" stroke="none" 
	d="
M77.126511,196.586761 
	C79.120911,187.296509 84.672104,182.354828 93.605522,181.208130 
	C101.255852,180.226135 108.674980,183.834549 112.278969,190.161514 
	C116.247643,197.128723 115.458710,207.234802 110.481865,213.181854 
	C105.405357,219.247986 96.819473,221.292892 88.637833,218.384415 
	C81.013618,215.674088 76.964905,209.302063 76.971169,200.000946 
	C76.971840,199.004059 77.037567,198.007202 77.126511,196.586761 
M93.322784,189.784683 
	C88.350609,192.195572 86.209908,196.371979 87.137146,202.437729 
	C87.762512,206.528732 89.098869,210.743256 93.974541,210.903961 
	C96.752228,210.995514 100.536842,209.959488 102.210106,208.008972 
	C105.689903,203.952576 105.339203,198.690094 103.169617,193.921234 
	C101.453423,190.148941 98.080765,188.949997 93.322784,189.784683 
z"/>
<path fill="#42BFEC" opacity="1.000000" stroke="none" 
	d="
M306.964600,188.961594 
	C307.294037,195.164902 307.088654,201.138245 300.455719,203.950928 
	C302.339661,206.917892 304.470032,209.502686 305.676361,212.463928 
	C306.391693,214.219772 305.649536,216.569412 305.562683,218.652054 
	C303.002014,218.137299 299.757599,218.405334 298.050079,216.913879 
	C295.808746,214.956116 295.071075,211.379608 293.133575,208.938248 
	C291.626770,207.039536 289.273895,205.812286 287.297028,204.286636 
	C286.777924,204.658096 286.258820,205.029556 285.739716,205.401016 
	C285.739716,208.343536 285.863617,211.292709 285.706543,214.226822 
	C285.533142,217.466385 283.984802,219.673889 280.408356,219.436035 
	C277.138306,219.218552 275.895935,217.138870 275.911102,214.006119 
	C275.954559,205.022720 275.940430,196.038971 275.928680,187.055389 
	C275.924103,183.541870 277.668030,181.863861 281.152008,181.883301 
	C285.643555,181.908386 290.135223,181.914825 294.626862,181.912964 
	C299.900513,181.910767 303.961060,183.957153 306.688660,188.903885 
	C307.001190,188.994064 306.964600,188.961594 306.964600,188.961594 
M287.621674,198.085297 
	C289.608612,198.072388 291.810913,198.590134 293.521301,197.895874 
	C295.199066,197.214859 297.181885,195.464722 297.504883,193.873978 
	C297.740112,192.715225 295.749573,190.252731 294.300171,189.792572 
	C291.783997,188.993759 288.918823,189.294281 285.353912,189.083878 
	C285.893097,192.601730 286.299652,195.254211 287.621674,198.085297 
z"/>
<path fill="#44BFED" opacity="1.000000" stroke="none" 
	d="
M192.600647,205.625031 
	C192.708328,212.714005 190.182800,216.443085 184.208710,218.460007 
	C177.923431,220.581970 171.632019,220.055206 165.744720,217.428970 
	C164.092041,216.691727 162.281540,213.547897 162.564606,211.843643 
	C163.055801,208.886292 165.731567,208.865662 168.557785,209.798355 
	C171.345947,210.718475 174.408066,211.323212 177.311874,211.196030 
	C179.230911,211.112000 181.082672,209.491760 182.964554,208.559311 
	C181.202667,207.370071 179.570740,205.864273 177.645157,205.073792 
	C175.370514,204.139954 172.809448,203.932770 170.430817,203.216965 
	C166.120316,201.919815 163.152786,199.427719 162.773026,194.524719 
	C162.380508,189.457062 164.388412,185.671188 168.783768,183.422333 
	C174.910080,180.287857 181.372650,180.162003 187.512131,183.180038 
	C189.072189,183.946945 189.678635,186.653748 190.723251,188.469208 
	C188.786957,189.117020 186.865067,190.239349 184.910889,190.298691 
	C182.149292,190.382584 179.316574,189.217697 176.606888,189.494247 
	C175.057922,189.652328 173.692657,191.610336 172.244690,192.757950 
	C173.564789,193.819427 174.731384,195.303299 176.238220,195.850922 
	C179.028107,196.864792 182.379883,196.722305 184.829269,198.182541 
	C187.750259,199.923981 189.968918,202.843460 192.600647,205.625031 
z"/>
<path fill="#42BFEC" opacity="1.000000" stroke="none" 
	d="
M265.751465,196.229980 
	C268.422791,201.993561 271.183044,207.320114 273.293823,212.892685 
	C273.918579,214.542130 272.712616,216.884995 272.345581,218.910110 
	C270.183594,218.215027 266.566315,218.028030 266.115112,216.735672 
	C264.297333,211.528870 260.612732,211.317398 256.274384,211.641571 
	C254.456635,211.777405 252.604233,211.817993 250.796066,211.629242 
	C247.898010,211.326736 246.140396,212.299225 245.205597,215.202454 
	C244.044647,218.808029 241.299545,220.450714 237.833603,218.703934 
	C234.520309,217.034088 236.147598,214.146057 237.250168,211.747604 
	C241.062408,203.454803 244.723434,195.079285 248.931580,186.989914 
	C250.149506,184.648727 252.983398,181.734222 255.125778,181.693787 
	C257.182861,181.654968 259.733032,184.702011 261.286102,186.935669 
	C263.152344,189.619827 264.193604,192.877594 265.751465,196.229980 
M258.877319,200.691818 
	C257.780487,198.176956 256.683655,195.662109 255.079269,191.983551 
	C253.170822,196.599854 251.741592,200.056992 250.111328,204.000412 
	C253.349167,204.000412 255.682556,204.143326 257.970276,203.883789 
	C258.446503,203.829758 258.753693,202.286148 258.877319,200.691818 
z"/>
<path fill="#43BFED" opacity="1.000000" stroke="none" 
	d="
M137.790222,211.004211 
	C139.646591,210.597870 141.149567,209.753326 142.519012,209.932022 
	C144.500565,210.190582 146.385483,211.189896 148.311615,211.873199 
	C147.586349,213.682098 147.381454,216.365692 146.050949,217.157227 
	C137.729462,222.107834 120.711899,220.495224 117.402008,206.145081 
	C115.703033,198.779068 116.245956,191.337524 122.603065,185.907471 
	C128.861450,180.561722 136.155807,180.066681 143.766251,182.451447 
	C145.003510,182.839157 146.619751,183.441681 147.118668,184.423615 
	C147.845627,185.854340 148.388107,188.062653 147.755508,189.296783 
	C147.188705,190.402512 144.969772,190.918625 143.397629,191.159943 
	C142.374741,191.316971 141.227341,190.416367 140.097046,190.160385 
	C133.001541,188.553467 127.932968,191.630463 127.063362,198.023544 
	C125.952553,206.189865 129.468948,210.621994 137.790222,211.004211 
z"/>
<path fill="#43BFED" opacity="1.000000" stroke="none" 
	d="
M307.017120,189.012604 
	C306.526917,182.253128 306.845673,181.888657 313.550934,181.875198 
	C321.034027,181.860184 328.528625,181.654922 335.991669,182.043091 
	C337.686798,182.131271 340.339722,184.078156 340.684082,185.593842 
	C341.376434,188.641281 338.891479,189.848495 336.010742,189.867233 
	C333.868866,189.881165 331.726837,189.869965 328.790527,189.869965 
	C328.790527,196.775558 328.804535,203.354614 328.781464,209.933548 
	C328.775085,211.758072 329.248077,213.921478 328.442841,215.320129 
	C327.448700,217.046906 325.163513,219.394440 323.774902,219.188629 
	C321.995148,218.924850 319.326233,216.490143 319.182404,214.807693 
	C318.631836,208.368484 318.938965,201.855911 318.927368,195.370712 
	C318.924469,193.739914 318.926971,192.109100 318.926971,190.443665 
	C314.910278,189.915619 311.356720,189.448441 307.383911,188.971436 
	C306.964600,188.961594 307.001190,188.994064 307.017120,189.012604 
z"/>
<path fill="#38426D" opacity="1.000000" stroke="none" 
	d="
M212.291107,235.710419 
	C211.775375,236.977112 211.449631,237.912567 211.123901,238.848022 
	C210.820236,238.795197 210.516586,238.742355 210.212921,238.689529 
	C210.212921,235.194290 210.212921,231.699066 210.212921,227.828873 
	C212.135818,227.828873 214.127197,227.576645 216.026840,227.886566 
	C219.060791,228.381546 220.177597,230.196701 219.132126,233.300247 
	C218.609680,234.851151 218.540176,236.554626 218.244476,238.316177 
	C216.704880,237.531601 214.593002,236.455399 212.291107,235.710419 
z"/>
<path fill="#4D577D" opacity="1.000000" stroke="none" 
	d="
M109.276924,231.780945 
	C111.442070,232.337372 113.310303,232.568985 115.178535,232.800598 
	C115.170883,233.159134 115.163231,233.517654 115.155579,233.876190 
	C113.930183,234.027740 112.688362,234.101562 111.484718,234.355972 
	C110.556587,234.552155 109.676384,234.975113 108.881271,236.434006 
	C111.069366,236.816132 113.257462,237.198273 115.445549,237.580399 
	C115.435966,237.910110 115.426384,238.239807 115.416801,238.569519 
	C112.673798,238.569519 109.930801,238.569519 106.264061,238.569519 
	C106.498459,235.177734 105.941559,231.287445 107.354378,228.341919 
	C107.967918,227.062744 112.633545,227.727127 115.498505,228.405060 
	C113.325676,229.422073 111.152840,230.439102 109.276924,231.780945 
z"/>
<path fill="#3D4771" opacity="1.000000" stroke="none" 
	d="
M228.035965,227.598663 
	C229.861557,227.715546 231.286896,227.832535 232.712250,227.949509 
	C232.728226,228.323318 232.744202,228.697113 232.760193,229.070908 
	C231.287537,229.200806 229.790390,229.211472 228.351791,229.507065 
	C227.538513,229.674179 226.821487,230.309662 226.061111,230.734192 
	C226.862808,231.282593 227.596481,232.046906 228.482971,232.326218 
	C229.665314,232.698746 230.966415,232.694305 232.254929,233.821579 
	C230.302689,234.074448 228.350433,234.327316 226.398193,234.580185 
	C226.214767,235.039230 226.031342,235.498260 225.847916,235.957306 
	C228.115601,236.568497 230.383286,237.179688 232.650986,237.790894 
	C232.656921,238.111176 232.662872,238.431458 232.668823,238.751740 
	C229.947723,238.874527 227.226624,238.997314 224.564026,239.117462 
	C222.557343,230.613144 223.258362,228.149460 228.035965,227.598663 
z"/>
<path fill="#434D75" opacity="1.000000" stroke="none" 
	d="
M92.940567,238.653442 
	C92.393402,235.006393 92.228111,231.533173 92.027512,227.317734 
	C94.335274,229.627182 95.785713,231.078674 97.236160,232.530167 
	C98.405899,231.061905 99.575638,229.593658 101.230202,227.516830 
	C101.230202,231.538452 101.230202,235.125381 101.230202,238.672623 
	C99.647667,237.154251 98.243240,235.806778 96.838806,234.459290 
	C95.666687,235.915283 94.494576,237.371277 92.940567,238.653442 
z"/>
<path fill="#3F4A73" opacity="1.000000" stroke="none" 
	d="
M129.843842,238.938263 
	C126.087402,235.017914 124.246826,235.009171 118.483032,238.401596 
	C120.385437,234.730530 122.287842,231.059464 124.190254,227.388397 
	C124.729141,227.337799 125.268036,227.287201 125.806931,227.236618 
	C127.277977,231.125458 128.749023,235.014297 129.843842,238.938263 
z"/>
<path fill="#3C4770" opacity="1.000000" stroke="none" 
	d="
M202.437805,230.670624 
	C203.810013,233.524628 204.998367,236.074463 206.186737,238.624313 
	C201.889145,235.286850 198.283981,234.189987 194.612305,239.977707 
	C194.330551,239.451477 194.048798,238.925232 193.767059,238.398987 
	C195.622528,234.778336 197.477997,231.157669 199.730469,226.762299 
	C200.877304,228.400238 201.565628,229.383347 202.437805,230.670624 
z"/>
<path fill="#333E6A" opacity="1.000000" stroke="none" 
	d="
M159.780045,232.081009 
	C159.926086,230.438446 160.072067,229.252777 160.218033,228.067093 
	C160.528915,228.034546 160.839783,228.001999 161.150665,227.969452 
	C161.583176,229.387619 162.015686,230.805801 162.445282,232.219269 
	C166.789551,234.220428 167.106567,230.859070 168.539948,228.094254 
	C168.539948,231.613678 168.539948,235.133102 168.539948,238.652512 
	C168.308701,238.711227 168.077469,238.769958 167.846222,238.828674 
	C167.368561,237.417145 166.890900,236.005630 166.390762,234.527710 
	C165.100021,234.527710 163.817963,234.527710 162.460434,234.527710 
	C162.056183,235.996933 161.686096,237.341965 161.316010,238.686996 
	C160.948456,238.703354 160.580902,238.719711 160.213364,238.736053 
	C160.068893,236.669998 159.924423,234.603943 159.780045,232.081009 
z"/>
<path fill="#3D4871" opacity="1.000000" stroke="none" 
	d="
M188.320953,227.772766 
	C189.513489,228.468613 190.342056,229.091187 190.824783,229.453888 
	C188.180099,230.169418 185.621353,230.654984 183.305115,231.685547 
	C182.904678,231.863724 183.168488,235.384323 183.749847,235.589157 
	C185.900803,236.347122 188.313309,236.362823 191.103775,236.718094 
	C189.715134,239.231873 187.190552,239.642715 184.476456,238.787460 
	C181.282867,237.781128 180.312653,235.131821 180.901566,232.051651 
	C181.642990,228.173752 184.407959,227.213699 188.320953,227.772766 
z"/>
<path fill="#3C4670" opacity="1.000000" stroke="none" 
	d="
M152.869583,229.929474 
	C152.266769,233.010101 152.050552,235.898270 151.834351,238.786438 
	C151.388733,238.810486 150.943115,238.834549 150.497513,238.858597 
	C150.251312,236.109467 150.005112,233.360352 149.715576,230.127243 
	C148.679764,229.823929 147.374557,229.441742 146.069336,229.059555 
	C146.095917,228.764236 146.122498,228.468903 146.149078,228.173584 
	C149.468048,228.173584 152.787018,228.173584 156.105988,228.173584 
	C156.154160,228.383987 156.202332,228.594391 156.250504,228.804794 
	C155.252396,229.115524 154.254303,229.426270 152.869583,229.929474 
z"/>
<path fill="#37426C" opacity="1.000000" stroke="none" 
	d="
M136.963135,232.084900 
	C137.032425,233.994797 137.101624,235.448425 137.168503,236.853241 
	C139.475525,237.089935 141.439987,237.291473 143.404449,237.493011 
	C143.365280,237.884521 143.326126,238.276047 143.286957,238.667572 
	C140.652359,238.667572 138.017761,238.667572 135.140060,238.667572 
	C135.140060,235.087891 135.140060,231.580658 135.140060,228.073425 
	C135.545410,228.020355 135.950745,227.967300 136.356094,227.914246 
	C136.558395,229.152359 136.760696,230.390488 136.963135,232.084900 
z"/>
<path fill="#FCFEFF" opacity="1.000000" stroke="none" 
	d="
M63.788307,194.564606 
	C67.318710,206.627090 62.563301,211.935867 49.407284,210.729355 
	C49.407284,204.045914 49.407284,197.319061 49.407284,190.220184 
	C54.714176,189.618607 59.958244,188.812683 63.788307,194.564606 
z"/>
<path fill="#FAFDFF" opacity="1.000000" stroke="none" 
	d="
M93.686462,189.675400 
	C98.080765,188.949997 101.453423,190.148941 103.169617,193.921234 
	C105.339203,198.690094 105.689903,203.952576 102.210106,208.008972 
	C100.536842,209.959488 96.752228,210.995514 93.974541,210.903961 
	C89.098869,210.743256 87.762512,206.528732 87.137146,202.437729 
	C86.209908,196.371979 88.350609,192.195572 93.686462,189.675400 
z"/>
<path fill="#F7FCFE" opacity="1.000000" stroke="none" 
	d="
M287.163940,197.995987 
	C286.299652,195.254211 285.893097,192.601730 285.353912,189.083878 
	C288.918823,189.294281 291.783997,188.993759 294.300171,189.792572 
	C295.749573,190.252731 297.740112,192.715225 297.504883,193.873978 
	C297.181885,195.464722 295.199066,197.214859 293.521301,197.895874 
	C291.810913,198.590134 289.608612,198.072388 287.163940,197.995987 
z"/>
<path fill="#F5FCFE" opacity="1.000000" stroke="none" 
	d="
M259.008057,201.060425 
	C258.753693,202.286148 258.446503,203.829758 257.970276,203.883789 
	C255.682556,204.143326 253.349167,204.000412 250.111328,204.000412 
	C251.741592,200.056992 253.170822,196.599854 255.079269,191.983551 
	C256.683655,195.662109 257.780487,198.176956 259.008057,201.060425 
z"/>
</svg>